#!OML:ASF F:\VICON\USERDATA\INSTALL\rory3\rory3.ASF
:FULLY-SPECIFIED
:DEGREES
55
root -0.11870936577731267 17.59734286056948 24.45646011131777 -1.2307736544652925 1.5208236770660482 0.3717143940150307
lfemur 0.19884676580096183 1.4165163365577298 -24.111715383138115
ltibia 30.137314127379234
lfoot -4.77016876693588 -5.26761495714636
ltoes -11.5977986954198
rfemur -24.368052433576047 8.792152357949153 17.706123848835915
rtibia 22.295211980215218
rfoot -4.322942711757454 -12.284783882085389
rtoes 7.581467109249538
lowerback 8.9556796054451 -1.1992525574808817 -2.5022563652475975
upperback 0.0697516021856448 -1.9712776106780836 1.357981335934922
thorax -4.978634766600772 -0.97529225281776 3.2479352537691533
lowerneck -16.283643290792114 -2.8807494734429864 -2.9309513296356067
upperneck 19.763441030773294 -3.6982440807343977 2.434429140829179
head 8.961439115730588 -1.744680049440585 0.9178235690959348
lclavicle -4.573285287995588e-16 -7.794475066990596e-16
lhumerus -29.48668746579651 3.067057708878064 79.50750591893508
lradius 32.436288122314735
lwrist 8.849583450761742
lhand -29.621426508903635 20.892279269373915
lfingers 7.12502
lthumb -2.56311696687416 52.13074960773771
rclavicle -4.550735197005505e-16 -7.783144006795947e-16
rhumerus -31.54325005884964 -18.20888229444169 -78.09080898895911
rradius 26.00522575153935
rwrist 2.6316889455115975
rhand -17.04930729427668 22.863643850031067
rfingers 7.12502
rthumb 9.455259110247562 -6.580875667630197
56
root -0.1278696729713189 17.404610525442667 25.871718521367377 -2.042314193499763 1.047772622142019 0.22989212127162073
lfemur -0.24911172989715702 1.489406662941387 -23.06607252298773
ltibia 32.703053017840176
lfoot -4.09429131180342 -6.3877517973493205
ltoes -13.101283373328862
rfemur -25.059544886411437 7.079193865783294 19.35928918786747
rtibia 23.67256316086459
rfoot -4.37218560362941 -10.540199328279805
rtoes 7.367685684841442
lowerback 9.916762259501013 -0.9436181948018794 -2.5184942401797086
upperback -0.008329943725463654 -1.6009952782599794 1.4584327645811843
thorax -5.086971599206159 -0.8022630316766871 3.095964706516644
lowerneck -16.319010587161042 -2.890989697158071 -2.943648750780099
upperneck 19.76157226287865 -3.710970999563513 2.5642586011310873
head 8.963488194991232 -1.7431181738201773 0.9603620840359662
lclavicle -4.560585422304429e-16 -7.784711957930576e-16
lhumerus -29.2873615352314 3.2354459033516267 79.48794448392397
lradius 32.896047334364766
lwrist 9.03881418231273
lhand -29.974108293835215 20.107219619640514
lfingers 7.12502
lthumb -2.822363620726832 51.466944838051596
rclavicle -4.58773019116839e-16 -7.812272564818026e-16
rhumerus -32.30645579891458 -19.311029139511856 -77.1520841240158
rradius 25.003838153925525
rwrist 3.827773705637539
rhand -17.04993389847048 23.29477439543863
rfingers 7.12502
rthumb 9.444022547265302 -6.272211438148234
57
root -0.0819831500130257 17.246346037273778 24.83726991873865 -3.13170200097036 -1.223093797996673 -1.4936599878143832
lfemur -2.040676904684714 2.3152724367527857 -20.61969505063991
ltibia 37.217634940590244
lfoot -4.130067127289191 -7.208142785005917
ltoes -14.293721883076602
rfemur -24.79794935527356 5.580488513203552 23.428052506296822
rtibia 25.904705896503977
rfoot -3.711318698477932 -9.108137729691538
rtoes 7.276784234352945
lowerback 11.326191579356559 -0.29073655077379873 -0.6792970826641549
upperback 0.012521830387306712 -0.5056608595856833 1.6965107313032715
thorax -5.3395241392659125 -0.2798077750121025 2.5101226076557364
lowerneck -16.351366399497284 -2.869272522612071 -2.9508919347893436
upperneck 19.782471665135006 -3.6758660293177527 2.592032064663533
head 8.978265996679779 -1.7254343549489113 0.9709820649371829
lclavicle -4.557533526958412e-16 -7.782309735490111e-16
lhumerus -29.555678127731774 3.3843268735737966 79.39702460424657
lradius 33.18152576427822
lwrist 8.966966666932695
lhand -30.048005347248377 19.808964841725825
lfingers 7.12502
lthumb -2.9158310609961706 50.97054412004323
rclavicle -4.630981665622333e-16 -7.846208962060172e-16
rhumerus -33.12464608259083 -20.742113780668237 -75.9480324701652
rradius 23.80092697399993
rwrist 5.2634213761314
rhand -17.0909986627837 23.528340401287817
rfingers 7.12502
rthumb 9.360711498895164 -6.15420915654469
58
root -0.07710565597537267 17.458339343645452 26.474469331416095 -3.426375707431867 -0.3308658568271192 -1.259817367336045
lfemur -3.7514280144033076 2.1543088771882184 -20.052043173119518
ltibia 41.244518892364255
lfoot -4.465270581507106 -6.813157495532556
ltoes -14.768352874094269
rfemur -23.335719251720267 4.286610193118163 24.231389841407292
rtibia 27.780024084989797
rfoot -3.5813088687875156 -8.129760620942086
rtoes 7.312684156082153
lowerback 10.599349457430815 -0.3700826432761592 -0.43383685678314343
upperback 0.23412300986545403 -0.4975114265827967 1.7691277494105355
thorax -5.085764853355566 -0.25702339867173707 2.1585714791606767
lowerneck -16.40905204442147 -2.77617710797698 -2.855478848103845
upperneck 19.86299858542013 -3.522547549629476 2.361945527824707
head 9.013443211750607 -1.667798421224461 0.8886972998718764
lclavicle -4.562743819757966e-16 -7.786265685148736e-16
lhumerus -30.08060901157045 3.5326077038239587 79.29234117762664
lradius 33.22604868111468
lwrist 8.524751221846712
lhand -29.79541673884959 20.084189347864903
lfingers 7.12502
lthumb -2.7267555128236065 51.001592026758665
rclavicle -4.654291390087387e-16 -7.863384936899446e-16
rhumerus -33.831162443986756 -22.157800213703513 -74.7446528612474
rradius 22.58515962888162
rwrist 6.81129690590811
rhand -17.138836718849433 23.565282017959632
rfingers 7.12502
rthumb 9.262143367305823 -6.194992770450256
59
root -0.10548983174957344 17.83091077030303 26.072874650459767 -4.144624984190742 1.521079217774957 -2.6175479319169224
lfemur -6.45597342398675 1.5311661485942896 -18.27432099957469
ltibia 45.708092946806595
lfoot -4.755843053057424 -6.682989526164198
ltoes -15.523115288585808
rfemur -19.279245106338873 5.479804845483321 25.358132613088127
rtibia 26.105560567817527
rfoot -3.712665448819677 -7.29070281168232
rtoes 7.853681075904983
lowerback 9.657338062145884 -0.9199808171523853 1.0149421642372056
upperback 0.19090693945969472 -0.882263911865889 2.110288172400711
thorax -5.121214183841658 -0.4432690627579008 2.0056797282755747
lowerneck -16.38712140511647 -2.688601232262249 -2.7926399179295096
upperneck 19.983114090497168 -3.3660505656489037 2.053059892988399
head 9.055118107997718 -1.6116256798926496 0.7841809811169794
lclavicle -4.581550009944146e-16 -7.800512883553058e-16
lhumerus -30.45640421353496 3.9988096422584887 79.24331392702692
lradius 32.86441312038333
lwrist 7.832483009129307
lhand -29.341420866826958 20.72845203973406
lfingers 7.12502
lthumb -2.318162406247243 51.43999300760602
rclavicle -4.654403240548178e-16 -7.862216691425153e-16
rhumerus -34.72469626466655 -23.783087209884098 -73.59586986400926
rradius 21.52645053565665
rwrist 8.311397834370847
rhand -17.17314225435039 23.469122852761807
rfingers 7.12502
rthumb 9.16492180884449 -6.384826622551596
